<?xml version="1.0" standalone="no"?><!DOCTYPE svg PUBLIC "-//W3C//DTD SVG 1.1//EN" "http://www.w3.org/Graphics/SVG/1.1/DTD/svg11.dtd"><svg t="1574148658183" class="icon" viewBox="0 0 1024 1024" version="1.1" xmlns="http://www.w3.org/2000/svg" p-id="8149" xmlns:xlink="http://www.w3.org/1999/xlink" width="200" height="200"><defs><style type="text/css"></style></defs><path d="M512 456.1c61.5 0 111.9 50.3 111.9 111.9 0 39.2-22.4 78.3-55.9 95.1v105.8c0 12.6-10.3 22.9-22.9 22.9H479c-12.6 0-22.9-10.3-22.9-22.9V663c-33.6-16.8-55.9-55.9-55.9-95.1-0.1-61.5 50.3-111.8 111.8-111.8z m0.2-279.7c33.5 0.1 61.3 11.3 83.7 39.2l21 21c10.2 10.2 26.6 10.8 37.5 1.3l43.6-37.8c11.5-10 12.7-27.4 2.7-38.9l-20.9-23.9C635.1 92.5 573.5 64.5 512 64.5c-123.1 0-223.8 100.7-223.8 223.8v83.9c-67.1 61.5-111.9 151-111.9 251.7 0 191.8 163.1 347.4 357.5 334.9 167.4-10.8 302.3-145.6 313-313 12.6-194.4-143-357.6-334.8-357.6-39.2 0-78.3 5.6-111.9 22.4v-21.4c0-61.6 50.5-112.9 112.1-112.8z" fill="#F57224" p-id="8150"></path></svg>