<?xml version="1.0" standalone="no"?><!DOCTYPE svg PUBLIC "-//W3C//DTD SVG 1.1//EN" "http://www.w3.org/Graphics/SVG/1.1/DTD/svg11.dtd"><svg t="1574236386852" class="icon" viewBox="0 0 1239 1024" version="1.1" xmlns="http://www.w3.org/2000/svg" p-id="3328" xmlns:xlink="http://www.w3.org/1999/xlink" width="241.9921875" height="200"><defs><style type="text/css"></style></defs><path d="M700.200057 49.054473l501.970295 772.30345a107.788339 107.788339 0 0 1-90.380522 166.532983H107.795345a107.788339 107.788339 0 0 1-90.380522-166.532983L519.439012 49.054473a107.788339 107.788339 0 0 1 180.761045 0z m-82.619762 238.212229a53.89417 53.89417 0 0 0-53.89417 53.89417v269.470848a53.89417 53.89417 0 1 0 107.78834 0v-269.470848a53.89417 53.89417 0 0 0-53.89417-53.89417z m-3.772592 431.153357a53.89417 53.89417 0 1 0 0 107.788339 53.89417 53.89417 0 0 0 0-107.788339z" p-id="3329" fill="#999"></path></svg>
